<svg xmlns="http://www.w3.org/2000/svg" width="25.141" height="25.141" viewBox="0 0 25.141 25.141"><defs><style>.a{fill:#080000;fill-rule:evenodd;}</style></defs><path class="a" d="M12.57,23.569a11,11,0,1,0-11-11A11,11,0,0,0,12.57,23.569Zm12.57-11A12.57,12.57,0,1,1,12.57,0a12.57,12.57,0,0,1,12.57,12.57Z"/><path class="a" d="M16.605,6.75a.855.855,0,0,1,.855.855v8.913l5.556,3.175a.855.855,0,0,1-.848,1.485l-5.987-3.421a.855.855,0,0,1-.431-.743V7.605A.855.855,0,0,1,16.605,6.75Z" transform="translate(-5.604 -2.341)"/></svg>