<svg xmlns="http://www.w3.org/2000/svg" viewBox="0 0 31.5 29.25"><g id="Layer_2" data-name="Layer 2"><g id="Layer_1-2" data-name="Layer 1"><path id="Icon_ionic-ios-star-outline" data-name="Icon ionic-ios-star-outline" d="M30.31,10.13H20L16.82.75a1.14,1.14,0,0,0-2.14,0l-3.14,9.38H1.13A1.12,1.12,0,0,0,0,11.25a1.11,1.11,0,0,0,0,.19,1.08,1.08,0,0,0,.47.8l8.5,6L5.73,27.71A1.13,1.13,0,0,0,6.12,29a1.09,1.09,0,0,0,.63.27,1.38,1.38,0,0,0,.7-.25l8.3-5.91L24.05,29a1.27,1.27,0,0,0,.7.25,1,1,0,0,0,.63-.27,1.11,1.11,0,0,0,.38-1.27L22.5,18.23l8.43-6.05.2-.18a1.17,1.17,0,0,0,.37-.75A1.19,1.19,0,0,0,30.31,10.13Zm-8.95,6.5a2,2,0,0,0-.72,2.23L22.76,25a.29.29,0,0,1-.17.36.3.3,0,0,1-.26,0l-5.44-3.88a2,2,0,0,0-1.15-.37,2,2,0,0,0-1.14.37L9.16,25.34a.27.27,0,0,1-.39-.06.3.3,0,0,1,0-.26l2.12-6.16a2,2,0,0,0-.72-2.25l-5.7-4a.28.28,0,0,1-.07-.39.29.29,0,0,1,.23-.12h6.94a2,2,0,0,0,1.86-1.34l2.08-6.2a.29.29,0,0,1,.36-.18.32.32,0,0,1,.18.18l2.08,6.2A2,2,0,0,0,20,12.08h6.84a.28.28,0,0,1,.16.51Z"/></g></g></svg>