<svg xmlns="http://www.w3.org/2000/svg" width="23.733" height="22.25" viewBox="0 0 23.733 22.25"><defs><style>.a{fill:#040000;fill-rule:evenodd;}</style></defs><path class="a" d="M23.462,1.292a.742.742,0,0,1,.272.574V21.15a.742.742,0,0,1-.6.727L15.72,23.36a.744.744,0,0,1-.291,0L8.158,21.907.887,23.36A.742.742,0,0,1,0,22.633V3.35a.742.742,0,0,1,.6-.727L8.013,1.139a.742.742,0,0,1,.291,0l7.272,1.454,7.272-1.454a.742.742,0,0,1,.616.153ZM14.833,3.958,8.9,2.772v17.77l5.933,1.187Zm1.483,17.77,5.933-1.187V2.772L16.317,3.958Zm-8.9-1.187V2.772L1.483,3.958v17.77Z" transform="translate(0 -1.125)"/></svg>