<svg xmlns="http://www.w3.org/2000/svg" viewBox="0 0 39 39"><g id="Layer_2" data-name="Layer 2"><g id="Layer_1-2" data-name="Layer 1"><g id="Group_145" data-name="Group 145"><path id="Path_29" data-name="Path 29" d="M0,19.5A19.5,19.5,0,1,1,19.5,39,19.5,19.5,0,0,1,0,19.5Zm2.69,0A16.81,16.81,0,1,0,19.53,2.7,16.81,16.81,0,0,0,2.69,19.47Z"/><path id="Path_30" data-name="Path 30" d="M19.85,20.61a6,6,0,1,1,6.07-6v0A6.06,6.06,0,0,1,19.85,20.61Zm0-2.69a3.37,3.37,0,1,0-3.36-3.38v0a3.37,3.37,0,0,0,3.36,3.35Z"/><path id="Path_31" data-name="Path 31" d="M8.22,26.18a1.28,1.28,0,0,1,.07-.34,7.57,7.57,0,0,1,6.53-5.2,2.61,2.61,0,0,1,1.78.45,5.71,5.71,0,0,0,6.49,0,2.81,2.81,0,0,1,2.07-.43,7.48,7.48,0,0,1,6.21,5A1.34,1.34,0,1,1,29,26.78a.94.94,0,0,1-.06-.15,4.81,4.81,0,0,0-4-3.26.78.78,0,0,0-.47.09,8.6,8.6,0,0,1-9.17,0,.85.85,0,0,0-.5-.09,4.75,4.75,0,0,0-3.94,3.28,1.34,1.34,0,0,1-2.62-.48Z"/></g></g></g></svg>